<svg width="256" height="257" viewBox="0 0 256 257" fill="none" xmlns="http://www.w3.org/2000/svg">
<path d="M91.4134 27.4295C91.4134 42.5785 79.1328 54.8592 63.9838 54.8592C48.8349 54.8592 36.5542 42.5785 36.5542 27.4295C36.5542 12.2806 48.8349 -6.10352e-05 63.9838 -6.10352e-05C79.1328 -6.10352e-05 91.4134 12.2806 91.4134 27.4295Z" fill="#F26956"/>
<path d="M91.4134 27.4295C91.4134 42.5785 79.1328 54.8592 63.9838 54.8592C48.8349 54.8592 36.5542 42.5785 36.5542 27.4295C36.5542 12.2806 48.8349 -6.10352e-05 63.9838 -6.10352e-05C79.1328 -6.10352e-05 91.4134 12.2806 91.4134 27.4295Z" fill="#F26956"/>
<path d="M124.937 19.3023C112.748 19.3023 107.668 20.3182 96.493 23.3659C96.493 54.8592 71.0952 67.0501 47.7282 55.8751C33.5065 71.1137 19.2827 99.5592 19.2827 124.957H50.777C50.777 121.909 51.0229 120.415 49.761 118.862C36.5542 102.607 50.3319 87.3683 64.9997 87.3683C79.8842 87.3683 91.4134 102.607 80.2384 118.862C78.8855 120.829 79.2215 121.909 79.2215 124.957H124.937V77.2092C124.938 74.1615 127.986 71.5652 133.066 72.1296C141.193 73.0327 141.193 81.3324 150.335 80.2569C167.607 78.2251 167.607 51.8114 150.335 49.7796C141.193 48.7041 141.193 57.0039 133.066 57.9069C127.986 58.4713 124.937 54.8592 124.937 52.8273V19.3023Z" fill="#F26956"/>
<path d="M228.57 91.4501C213.421 91.4501 201.141 79.1694 201.141 64.0205C201.141 48.8715 213.421 36.5908 228.57 36.5908C243.719 36.5908 256 48.8715 256 64.0205C256 79.1694 243.719 91.4501 228.57 91.4501Z" fill="#5C7BA2"/>
<path d="M228.57 91.4501C213.421 91.4501 201.141 79.1694 201.141 64.0205C201.141 48.8715 213.421 36.5908 228.57 36.5908C243.719 36.5908 256 48.8715 256 64.0205C256 79.1694 243.719 91.4501 228.57 91.4501Z" fill="#5C7BA2"/>
<path d="M236.689 124.957C236.689 112.767 235.674 107.688 232.626 96.5125C201.133 96.5125 188.942 71.1147 200.117 47.7478C184.878 33.526 156.432 19.3022 131.035 19.3022V50.7965C134.082 50.7965 135.577 51.0424 137.13 49.7806C153.385 36.5737 168.623 50.3514 168.623 65.0192C168.623 79.9038 153.385 91.4329 137.13 80.2579C135.162 78.905 134.082 79.241 131.035 79.241V124.957L178.783 124.957C181.83 124.958 184.426 128.006 183.862 133.085C182.959 141.213 174.659 141.213 175.735 150.355C177.767 167.626 204.18 167.626 206.212 150.355C207.288 141.213 198.988 141.213 198.085 133.085C197.52 128.006 201.132 124.957 203.164 124.957H236.689Z" fill="#5C7BA2"/>
<path d="M164.642 228.58C164.642 213.431 176.923 201.15 192.072 201.15C207.221 201.15 219.502 213.431 219.502 228.58C219.502 243.729 207.221 256.01 192.072 256.01C176.923 256.01 164.642 243.729 164.642 228.58Z" fill="#5AC4BD"/>
<path d="M164.642 228.58C164.642 213.431 176.923 201.15 192.072 201.15C207.221 201.15 219.502 213.431 219.502 228.58C219.502 243.729 207.221 256.01 192.072 256.01C176.923 256.01 164.642 243.729 164.642 228.58Z" fill="#5AC4BD"/>
<path d="M131.034 236.707C143.224 236.707 148.304 235.691 159.479 232.644C159.479 201.15 184.876 188.959 208.243 200.134C222.465 184.896 236.689 156.45 236.689 131.053H205.195C205.195 134.1 204.949 135.595 206.211 137.148C219.417 153.403 205.64 168.641 190.972 168.641C176.087 168.641 164.558 153.403 175.733 137.148C177.086 135.18 176.75 134.1 176.75 131.053H131.034V178.8C131.033 181.848 127.985 184.444 122.906 183.88C114.779 182.977 114.779 174.677 105.636 175.753C88.3649 177.784 88.3649 204.198 105.636 206.23C114.779 207.305 114.779 199.006 122.906 198.103C127.985 197.538 131.034 201.15 131.034 203.182V236.707Z" fill="#5AC4BD"/>
<path d="M27.4296 164.578C42.5786 164.578 54.8592 176.858 54.8592 192.007C54.8592 207.156 42.5786 219.437 27.4296 219.437C12.2807 219.437 0 207.156 0 192.007C0 176.858 12.2807 164.578 27.4296 164.578Z" fill="#FFA00E"/>
<path d="M27.4296 164.578C42.5786 164.578 54.8592 176.858 54.8592 192.007C54.8592 207.156 42.5786 219.437 27.4296 219.437C12.2807 219.437 0 207.156 0 192.007C0 176.858 12.2807 164.578 27.4296 164.578Z" fill="#FFA00E"/>
<path d="M19.2839 131.053C19.2839 143.242 20.2998 148.322 23.3475 159.497C54.8408 159.497 67.0317 184.895 55.8567 208.262C71.0953 222.484 99.5408 236.707 124.939 236.707V205.213C121.891 205.213 120.396 204.967 118.843 206.229C102.589 219.436 87.3499 205.658 87.3499 190.99C87.3499 176.106 102.589 164.577 118.843 175.752C120.811 177.104 121.891 176.769 124.939 176.769V131.053H77.1908C74.1431 131.052 71.5468 128.004 72.1112 122.924C73.0143 114.797 81.314 114.797 80.2385 105.655C78.2067 88.3832 51.793 88.3832 49.7612 105.655C48.6857 114.797 56.9855 114.797 57.8885 122.924C58.4529 128.004 54.8408 131.053 52.8089 131.053H19.2839Z" fill="#FFA00E"/>
</svg>
